<svg xmlns="http://www.w3.org/2000/svg" viewBox="0 0 500 500"><defs><style>.cls-1,.cls-2{fill:#757575;}.cls-2{stroke:#757575;stroke-miterlimit:10;stroke-width:0.75px;}</style></defs><title>Filter Gallery Block</title><g id="Blocks"><polygon class="cls-1" points="338.05 376.93 218.13 376.93 218.13 368.68 209 368.68 209 376.93 158.89 376.93 158.89 386.79 209 386.79 209 395.04 218.13 395.04 218.13 386.79 338.05 386.79 338.05 376.93"/><polygon class="cls-1" points="338.05 405 260.75 405 260.75 396.75 251.62 396.75 251.62 405 158.89 405 158.89 414.87 251.62 414.87 251.62 423.11 260.75 423.11 260.75 414.87 338.05 414.87 338.05 405"/><polygon class="cls-1" points="221.15 181.17 132.32 180.76 132.23 162.27 165.89 134.24 221.15 181.17"/><ellipse class="cls-1" cx="202.94" cy="116.51" rx="14.91" ry="15.07"/><path class="cls-2" d="M113.57,79.12V212.25H242.82V79.12ZM229.18,189.2h-102V92h102Z"/><polygon class="cls-1" points="221.15 324.91 132.32 324.5 132.23 306.01 165.89 277.98 221.15 324.91"/><ellipse class="cls-1" cx="202.94" cy="260.25" rx="14.91" ry="15.07"/><path class="cls-2" d="M113.57,222.86V356H242.82V222.86ZM229.18,332.94h-102V235.75h102Z"/><polygon class="cls-1" points="362.29 181.17 273.47 180.76 273.38 162.27 307.03 134.24 362.29 181.17"/><ellipse class="cls-1" cx="344.09" cy="116.51" rx="14.91" ry="15.07"/><path class="cls-2" d="M254.72,79.12V212.25H384V79.12ZM370.32,189.2h-102V92h102Z"/></g></svg>