<svg xmlns="http://www.w3.org/2000/svg" viewBox="0 0 500 500"><defs><style>.cls-1{fill:#e6e6e6;}</style></defs><title>Filter Gallery Block 2</title><g id="Blocks"><polygon class="cls-1" points="337.47 376.93 217.56 376.93 217.56 368.68 208.43 368.68 208.43 376.93 158.31 376.93 158.31 386.79 208.43 386.79 208.43 395.04 217.56 395.04 217.56 386.79 337.47 386.79 337.47 376.93"/><polygon class="cls-1" points="337.47 405 260.17 405 260.17 396.75 251.04 396.75 251.04 405 158.31 405 158.31 414.87 251.04 414.87 251.04 423.11 260.17 423.11 260.17 414.87 337.47 414.87 337.47 405"/><polygon class="cls-1" points="220.57 181.17 131.75 180.76 131.65 162.27 165.31 134.24 220.57 181.17"/><ellipse class="cls-1" cx="202.36" cy="116.51" rx="14.91" ry="15.07"/><path class="cls-1" d="M113,79.12V212.25H242.24V79.12ZM228.6,189.2h-102V92h102Z"/><polygon class="cls-1" points="220.57 324.91 131.75 324.5 131.65 306.01 165.31 277.98 220.57 324.91"/><ellipse class="cls-1" cx="202.36" cy="260.25" rx="14.91" ry="15.07"/><path class="cls-1" d="M113,222.86V356H242.24V222.86ZM228.6,332.94h-102V235.75h102Z"/><polygon class="cls-1" points="361.72 181.17 272.89 180.76 272.8 162.27 306.46 134.24 361.72 181.17"/><ellipse class="cls-1" cx="343.51" cy="116.51" rx="14.91" ry="15.07"/><path class="cls-1" d="M254.14,79.12V212.25H383.39V79.12ZM369.75,189.2h-102V92h102Z"/></g></svg>